<?xml version="1.0" encoding="UTF-8" standalone="no"?>
<!DOCTYPE svg PUBLIC "-//W3C//DTD SVG 1.1//EN" "http://www.w3.org/Graphics/SVG/1.1/DTD/svg11.dtd">
<svg width="64" height="64" viewBox="0 0 64 64" version="1.1" xmlns="http://www.w3.org/2000/svg">
  <title>WorkWise SA Favicon</title>
  <style>
    @media (prefers-color-scheme: dark) {
      .hat-fill { fill: #FFD54F; }
      .hat-stroke { stroke: #333333; }
      .eye-fill { fill: #333333; }
    }
    @media (prefers-color-scheme: light) {
      .hat-fill { fill: #FFD54F; }
      .hat-stroke { stroke: #333333; }
      .eye-fill { fill: #333333; }
    }
  </style>

  <!-- Set the viewBox to fill more of the available space -->
  <g transform="translate(8, 8) scale(1.5)">
    <!-- Hard Hat - simplified but larger for favicon -->
    <path class="hat-fill" stroke="#333333" stroke-width="2" d="M16 4c-6.5 0-12 5.5-12 12v6h24v-6c0-6.5-5.5-12-12-12z" />
    <path class="hat-fill" stroke="#333333" stroke-width="2" d="M4 22v3c0 1.5 1 3 3 3h18c2 0 3-1.5 3-3v-3H4z" />

    <!-- Straps -->
    <line x1="10" y1="4" x2="10" y2="10" stroke="#333333" stroke-width="2" />
    <line x1="22" y1="4" x2="22" y2="10" stroke="#333333" stroke-width="2" />

    <!-- Eyes - larger -->
    <circle cx="11" cy="15" r="1.5" fill="#333333" />
    <circle cx="21" cy="15" r="1.5" fill="#333333" />

    <!-- Simple smile -->
    <path d="M13 19 C 14 21, 18 21, 19 19" fill="none" stroke="#333333" stroke-width="1.5" />
  </g>
</svg>
