<?xml version="1.0" encoding="UTF-8" standalone="no"?>
<svg 
  xmlns="http://www.w3.org/2000/svg" 
  viewBox="0 0 512 200" 
  width="512" 
  height="200"
>
  <g transform="translate(0, -50)">
    <!-- Hard Hat -->
    <g stroke="#333333" stroke-width="8" stroke-linecap="round" stroke-linejoin="round" transform="scale(0.6) translate(50, 100)">
      <path fill="#FFD54F" d="M256 96c-88.4 0-160 71.6-160 160v64h320v-64c0-88.4-71.6-160-160-160zm-96 160c0-53 43-96 96-96s96 43 96 96v16H160v-16z" />
      <path fill="#FFD54F" d="M96 320v32c0 17.7 14.3 32 32 32h256c17.7 0 32-14.3 32-32v-32H96z" />
      
      <!-- Straps -->
      <path d="M192 96v64M320 96v64" stroke="#333333" stroke-width="12" />
      
      <!-- Face/Eyes -->
      <circle cx="200" cy="200" r="12" fill="#333333" stroke="none" />
      <circle cx="312" cy="200" r="12" fill="#333333" stroke="none" />
      
      <!-- Smile -->
      <path d="M220 240 C 240 270, 272 270, 292 240" fill="none" stroke="#333333" stroke-width="8" />
    </g>
  </g>
  
  <!-- Text -->
  <g transform="translate(230, 120)">
    <text font-family="Arial, sans-serif" font-size="42" font-weight="bold" text-anchor="left">
      <tspan fill="#FFD54F">WORK</tspan><tspan fill="#FFFFFF">WISE</tspan><tspan fill="#FFD54F">.SA</tspan>
    </text>
  </g>
</svg>
